<svg xmlns="http://www.w3.org/2000/svg" width="800" height="1100" viewBox="0 0 800 1100">
  <defs>
    <radialGradient id="g" cx="50%" cy="42%" r="75%">
      <stop offset="0%" stop-color="#1a1026"/>
      <stop offset="60%" stop-color="#0d0a12"/>
      <stop offset="100%" stop-color="#050505"/>
    </radialGradient>
  </defs>
  <rect width="800" height="1100" fill="url(#g)"/>
  <rect x="14" y="14" width="772" height="1072" fill="none" stroke="#7c2fd6" stroke-opacity="0.35" stroke-width="2"/>
  <g transform="translate(400 510)" stroke="#7c2fd6" stroke-opacity="0.6" fill="none" stroke-width="3">
    <path d="M0 -30 C -12 -30 -20 -20 -20 -8 C -20 4 -10 14 0 22 C 10 14 20 4 20 -8 C 20 -20 12 -30 0 -30 Z"/>
    <path d="M-14 -14 C -40 -34 -70 -44 -96 -44 C -76 -30 -66 -18 -58 -4"/>
    <path d="M14 -14 C 40 -34 70 -44 96 -44 C 76 -30 66 -18 58 -4"/>
  </g>
  <text x="50%" y="594" text-anchor="middle" fill="#b3aabf" font-family="Georgia, serif" font-size="26" letter-spacing="6">REALISM</text>
  <text x="50%" y="632" text-anchor="middle" fill="#6b6275" font-family="Georgia, serif" font-size="16" letter-spacing="2">[PLACEHOLDER — real IG photo]</text>
</svg>